<?xml version="1.0" standalone="no"?>
<!DOCTYPE svg PUBLIC "-//W3C//DTD SVG 20010904//EN"
 "http://www.w3.org/TR/2001/REC-SVG-20010904/DTD/svg10.dtd">
<svg version="1.0" xmlns="http://www.w3.org/2000/svg"
 width="1010.000000pt" height="1010.000000pt" viewBox="0 0 1010.000000 1010.000000"
 preserveAspectRatio="xMidYMid meet">
<metadata>
Created by potrace 1.14, written by Peter Selinger 2001-2017
</metadata>
<g transform="translate(0.000000,1010.000000) scale(0.100000,-0.100000)"
fill="#000000" stroke="none">
<path d="M4779 10095 c-2 -1 -53 -6 -114 -10 -60 -4 -112 -8 -115 -10 -3 -1
-36 -6 -75 -9 -38 -4 -83 -9 -100 -11 -16 -3 -43 -7 -60 -10 -16 -2 -48 -7
-70 -10 -93 -13 -311 -59 -458 -96 -274 -70 -540 -164 -837 -296 -281 -125
-725 -390 -925 -551 -5 -4 -26 -19 -45 -32 -19 -14 -37 -27 -40 -30 -3 -3 -27
-23 -55 -45 -162 -128 -397 -349 -565 -531 -65 -71 -76 -83 -161 -184 -362
-433 -692 -1019 -879 -1565 -72 -209 -160 -531 -186 -680 -13 -77 -35 -204
-39 -225 -2 -14 -6 -45 -9 -70 -3 -25 -8 -63 -11 -85 -23 -178 -30 -323 -30
-595 0 -235 9 -446 20 -505 2 -11 7 -47 10 -80 3 -33 7 -71 9 -85 4 -21 15
-91 31 -195 10 -70 43 -229 61 -300 9 -33 17 -67 19 -75 5 -25 43 -161 63
-230 130 -433 351 -903 610 -1300 62 -94 262 -371 282 -390 3 -3 39 -45 80
-95 160 -192 469 -501 607 -608 15 -12 34 -27 41 -34 8 -7 50 -42 95 -77 499
-389 1070 -684 1676 -866 155 -47 460 -118 576 -135 23 -3 52 -8 65 -10 36 -8
227 -34 285 -39 290 -28 805 -29 1015 -1 19 3 59 7 90 11 86 9 113 12 145 18
17 3 73 12 125 21 385 64 730 167 1160 346 214 89 596 301 825 457 103 70 354
258 365 273 3 3 34 30 70 60 164 134 371 343 594 599 130 148 370 489 479 679
218 381 356 696 481 1101 74 241 147 582 176 830 6 52 13 106 15 120 26 174
26 851 1 1000 -3 14 -7 52 -10 85 -10 104 -16 149 -27 201 -5 28 -11 66 -14
85 -3 29 -15 89 -51 259 -125 588 -438 1288 -806 1800 -89 125 -206 278 -228
300 -3 3 -30 34 -60 70 -231 275 -629 639 -900 823 -14 9 -50 34 -80 54 -30
21 -56 41 -58 45 -2 5 -8 8 -12 8 -5 0 -54 29 -109 65 -55 36 -103 65 -106 65
-3 0 -22 11 -43 23 -183 116 -554 287 -832 386 -180 63 -495 153 -610 174 -14
3 -59 12 -100 20 -41 9 -91 18 -110 21 -19 3 -44 7 -55 10 -11 2 -42 7 -70 10
-95 14 -120 17 -145 21 -14 2 -61 7 -105 11 -44 3 -91 8 -105 11 -31 5 -656
13 -661 8z"/>
</g>
</svg>
